<svg width="1600" height="1014" viewBox="0 0 1600 1014" fill="none" xmlns="http://www.w3.org/2000/svg">
  <rect width="1600" height="1014" fill="#FFFFFF"/>
  <rect x="0.5" y="0.5" width="311" height="1013" fill="#F8FAFF" stroke="#D9E3F4"/>
  <path d="M34 58L84 34L70 92L56 73L34 58Z" fill="#2563EB"/>
  <text x="103" y="69" fill="#2563EB" font-family="Inter, Arial, sans-serif" font-size="42" font-weight="800">Repetigo</text>
  <text x="103" y="96" fill="#66728A" font-family="Inter, Arial, sans-serif" font-size="14">Smart. Simple. Print.</text>
  <rect x="18" y="132" width="278" height="61" rx="12" fill="#EAF2FF"/>
  <text x="87" y="167" fill="#0B1B55" font-family="Inter, Arial, sans-serif" font-size="17" font-weight="700">Dashboard</text>
  <g stroke="#0B1B55" stroke-width="2.4" stroke-linecap="round" stroke-linejoin="round">
    <path d="M42 163L52 153L62 163V174H46V163"/>
    <path d="M49 174V166H55V174"/>
  </g>
  <g fill="#0B1B55" font-family="Inter, Arial, sans-serif" font-size="17" font-weight="650">
    <text x="87" y="241">Auto Printing</text>
    <text x="87" y="311">Passport Photos</text>
    <text x="87" y="381">AI Form Filling</text>
    <text x="87" y="451">Agreements</text>
    <text x="87" y="521">PDF Tools</text>
    <text x="87" y="591">Image Tools</text>
    <text x="87" y="661">BackGround Remover</text>
  </g>
  <g stroke="#0B1B55" stroke-width="2.2" stroke-linecap="round" stroke-linejoin="round">
    <rect x="42" y="225" width="20" height="18" rx="2"/>
    <path d="M46 225V217H58V225M46 241H39V230H65V241H58M46 239H58V249H46V239Z"/>
    <rect x="42" y="294" width="20" height="20" rx="3"/>
    <circle cx="52" cy="302" r="4"/>
    <path d="M45 313C47 308 57 308 60 313"/>
    <path d="M43 362H57L63 368V386H43V362Z"/>
    <path d="M57 362V368H63M48 375H58M48 380H56"/>
    <path d="M43 445L60 428L66 434L49 451L41 453L43 445Z"/>
    <path d="M45 500H60L66 506V527H45V500Z"/>
    <path d="M60 500V506H66M51 511H60M51 517H57"/>
    <rect x="43" y="571" width="20" height="20" rx="2"/>
    <path d="M47 587L52 581L56 585L59 582L63 587"/>
    <rect x="41" y="639" width="23" height="23" rx="5" stroke-dasharray="4 4"/>
  </g>
  <rect x="248.5" y="220.5" width="31" height="29" rx="7.5" fill="#FFFFFF" stroke="#2563EB"/>
  <text x="259" y="241" fill="#2563EB" font-family="Inter, Arial, sans-serif" font-size="16" font-weight="700">6</text>
  <rect x="18.5" y="696.5" width="278" height="119" rx="14.5" fill="#FFFFFF" stroke="#D9E3F4"/>
  <path d="M54 729L67 746H41L54 729Z" fill="#2563EB"/>
  <text x="96" y="737" fill="#0B1B55" font-family="Inter, Arial, sans-serif" font-size="17" font-weight="800">Pro Plan</text>
  <text x="96" y="763" fill="#455273" font-family="Inter, Arial, sans-serif" font-size="14">Valid till 25 Aug 2025</text>
  <text x="96" y="791" fill="#2563EB" font-family="Inter, Arial, sans-serif" font-size="14" font-weight="700">View Plan</text>
  <rect x="18.5" y="839.5" width="278" height="107" rx="14.5" fill="#FFFFFF" stroke="#D9E3F4"/>
  <circle cx="58" cy="893" r="29" fill="#EAF2FF"/>
  <text x="47" y="900" fill="#2563EB" font-family="Inter, Arial, sans-serif" font-size="18" font-weight="800">RS</text>
  <text x="96" y="880" fill="#0B1B55" font-family="Inter, Arial, sans-serif" font-size="17" font-weight="800">Repetigo Shop</text>
  <text x="96" y="913" fill="#455273" font-family="Inter, Arial, sans-serif" font-size="14">Owner</text>
  <path d="M257 891L264 898L271 891" stroke="#0B1B55" stroke-width="2" stroke-linecap="round" stroke-linejoin="round"/>

  <rect x="312" y="0.5" width="1288" height="118" fill="#FFFFFF" stroke="#D9E3F4"/>
  <rect x="347.5" y="24.5" width="74" height="74" rx="14.5" fill="#FFFFFF" stroke="#D9E3F4"/>
  <path d="M373 63H398M378 57H393L397 63V79H374V63L378 57Z" stroke="#0B1B55" stroke-width="2.4" stroke-linecap="round" stroke-linejoin="round"/>
  <text x="441" y="54" fill="#0B1B55" font-family="Inter, Arial, sans-serif" font-size="26" font-weight="800">Suresh Digital Prints</text>
  <text x="441" y="90" fill="#455273" font-family="Inter, Arial, sans-serif" font-size="18">MG Road, Vijayawada, Andhra Pradesh</text>
  <path d="M764 78L771 85L778 78" stroke="#0B1B55" stroke-width="2.4" stroke-linecap="round" stroke-linejoin="round"/>
  <rect x="1074.5" y="30.5" width="305" height="60" rx="11.5" fill="#FFFFFF" stroke="#2563EB"/>
  <g stroke="#2563EB" stroke-width="2.4">
    <path d="M1099 49H1108V58H1099V49ZM1117 49H1126V58H1117V49ZM1099 67H1108V76H1099V67ZM1117 67H1126V76H1117V67Z"/>
  </g>
  <text x="1143" y="68" fill="#0B1B55" font-family="Inter, Arial, sans-serif" font-size="19" font-weight="800">QR Code for Customers</text>
  <path d="M1438 61C1438 51 1444 45 1451 45C1459 45 1464 51 1464 61V70L1470 76H1432L1438 70V61Z" stroke="#0B1B55" stroke-width="2.2" stroke-linecap="round" stroke-linejoin="round"/>
  <circle cx="1462" cy="43" r="14" fill="#2563EB"/>
  <text x="1458" y="49" fill="#FFFFFF" font-family="Inter, Arial, sans-serif" font-size="14" font-weight="800">3</text>
  <circle cx="1532" cy="61" r="31" fill="#EAF2FF"/>
  <text x="1519" y="69" fill="#2563EB" font-family="Inter, Arial, sans-serif" font-size="20" font-weight="800">RS</text>

  <text x="349" y="179" fill="#0B1B55" font-family="Inter, Arial, sans-serif" font-size="28" font-weight="850">Live Print Queue</text>
  <circle cx="587" cy="171" r="6" fill="#2563EB"/>
  <text x="607" y="178" fill="#455273" font-family="Inter, Arial, sans-serif" font-size="18">6 jobs</text>
  <text x="349" y="215" fill="#455273" font-family="Inter, Arial, sans-serif" font-size="18">Real-time status of all print jobs</text>
  <rect x="1210.5" y="153.5" width="121" height="60" rx="11.5" fill="#FFFFFF" stroke="#D9E3F4"/>
  <text x="1268" y="189" fill="#0B1B55" font-family="Inter, Arial, sans-serif" font-size="18" font-weight="800">Filter</text>
  <path d="M1233 175H1252L1245 183V194L1240 197V183L1233 175Z" stroke="#0B1B55" stroke-width="2.4" stroke-linecap="round" stroke-linejoin="round"/>
  <rect x="1358.5" y="153.5" width="207" height="60" rx="11.5" fill="#FFFFFF" stroke="#D9E3F4"/>
  <text x="1414" y="189" fill="#0B1B55" font-family="Inter, Arial, sans-serif" font-size="18" font-weight="800">Newest First</text>
  <path d="M1383 176V196M1383 176L1376 183M1383 176L1390 183M1399 196V176M1399 196L1392 189M1399 196L1406 189" stroke="#0B1B55" stroke-width="2.3" stroke-linecap="round" stroke-linejoin="round"/>
  <path d="M1529 181L1536 188L1543 181" stroke="#0B1B55" stroke-width="2.2" stroke-linecap="round" stroke-linejoin="round"/>

  <g fill="#455273" font-family="Inter, Arial, sans-serif" font-size="13" font-weight="800">
    <text x="349" y="268">FILE PREVIEW</text>
    <text x="625" y="268">FILE NAME &amp; DETAILS</text>
    <text x="930" y="268">PAGES</text>
    <text x="1011" y="268">COPIES</text>
    <text x="1098" y="268">STATUS</text>
    <text x="1311" y="268">ADDED AT</text>
    <text x="1463" y="268">ACTION</text>
  </g>

  <rect x="339.5" y="292.5" width="1230" height="209" rx="15.5" fill="#FFFFFF" stroke="#D9E3F4"/>
  <rect x="355.5" y="309.5" width="228" height="176" rx="9.5" fill="#FFFFFF" stroke="#D9E3F4"/>
  <rect x="366" y="322" width="207" height="146" rx="7" fill="#F8FBFF"/>
  <rect x="408" y="323" width="127" height="33" rx="3" fill="#FFE7B1"/>
  <text x="447" y="339" fill="#15244B" font-family="Inter, Arial, sans-serif" font-size="10" font-weight="900">BHARAT SARKAR</text>
  <text x="450" y="353" fill="#15244B" font-family="Inter, Arial, sans-serif" font-size="9">GOVERNMENT OF INDIA</text>
  <circle cx="544" cy="337" r="17" fill="#FFB703"/>
  <rect x="377" y="367" width="45" height="63" rx="3" fill="#D9E3F4"/>
  <circle cx="399" cy="390" r="15" fill="#23324F"/>
  <rect x="386" y="400" width="26" height="25" rx="8" fill="#D9A477"/>
  <g fill="#111827" font-family="Inter, Arial, sans-serif" font-size="8" font-weight="700">
    <text x="429" y="376">Name / naam</text>
    <text x="429" y="391">Ramesh Babu</text>
    <text x="429" y="407">DOB / janm tithi</text>
    <text x="429" y="423">12/06/1990</text>
    <text x="429" y="439">Gender / ling</text>
  </g>
  <rect x="536" y="413" width="26" height="26" fill="#111827"/>
  <path d="M356 467H583" stroke="#F04438" stroke-width="2"/>
  <text x="413" y="481" fill="#111827" font-family="Inter, Arial, sans-serif" font-size="10" font-weight="800">mera aadhaar, meri pehchan</text>
  <rect x="614" y="320" width="36" height="36" rx="8" fill="#3026C9"/>
  <path d="M625 329H639V343H625V329ZM628 340L631 336L634 339L636 337L639 340" stroke="#FFFFFF" stroke-width="1.7" stroke-linecap="round" stroke-linejoin="round"/>
  <text x="668" y="335" fill="#0B1B55" font-family="Inter, Arial, sans-serif" font-size="16" font-weight="800">Aadhaar_Ramesh.jpg</text>
  <text x="668" y="364" fill="#455273" font-family="Inter, Arial, sans-serif" font-size="14">Aadhaar Card</text>
  <text x="615" y="396" fill="#455273" font-family="Inter, Arial, sans-serif" font-size="16">JPG  •  1.2 MB</text>
  <text x="615" y="432" fill="#455273" font-family="Inter, Arial, sans-serif" font-size="16">Customer: Ramesh Babu</text>
  <rect x="614" y="448" width="73" height="29" rx="8" fill="#EAF2FF"/>
  <text x="625" y="468" fill="#2563EB" font-family="Inter, Arial, sans-serif" font-size="13" font-weight="800">ID Proof</text>
  <text x="935" y="396" fill="#171717" font-family="Inter, Arial, sans-serif" font-size="20">1</text>
  <text x="1018" y="396" fill="#171717" font-family="Inter, Arial, sans-serif" font-size="20">2</text>
  <rect x="1091" y="362" width="153" height="43" rx="8" fill="#EFEDFF" stroke="#D9D5FF"/>
  <text x="1133" y="389" fill="#3026C9" font-family="Inter, Arial, sans-serif" font-size="15" font-weight="800">AI Processing</text>
  <path d="M1108 384L1111 377L1114 384L1121 387L1114 390L1111 397L1108 390L1101 387L1108 384Z" fill="#3026C9"/>
  <text x="1091" y="431" fill="#455273" font-family="Inter, Arial, sans-serif" font-size="14">Enhancing &amp; optimizing...</text>
  <text x="1304" y="396" fill="#171717" font-family="Inter, Arial, sans-serif" font-size="16">10:24 AM</text>
  <rect x="1482" y="364" width="48" height="52" rx="10" fill="#FFFFFF" stroke="#D9E3F4"/>
  <circle cx="1506" cy="382" r="2.5" fill="#0B1B55"/>
  <circle cx="1506" cy="390" r="2.5" fill="#0B1B55"/>
  <circle cx="1506" cy="398" r="2.5" fill="#0B1B55"/>

  <rect x="339.5" y="512.5" width="1230" height="178" rx="15.5" fill="#FFFFFF" stroke="#D9E3F4"/>
  <rect x="406" y="528" width="111" height="146" rx="8" fill="#F5F7FB"/>
  <path d="M421 541H477L505 570V662H421V541Z" fill="#FFFFFF" stroke="#E5EAF4"/>
  <path d="M477 541V570H505" fill="#F1F4F9"/>
  <rect x="416" y="570" width="59" height="28" rx="2" fill="#E22D2D"/>
  <text x="428" y="590" fill="#FFFFFF" font-family="Inter, Arial, sans-serif" font-size="20" font-weight="900">PDF</text>
  <path d="M452 647C473 635 466 605 455 612C444 619 440 656 489 644" stroke="#E22D2D" stroke-width="2.5" stroke-linecap="round"/>
  <rect x="614" y="535" width="36" height="36" rx="8" fill="#E22D2D"/>
  <path d="M625 544H639V558H625V544ZM629 548H635M629 552H637" stroke="#FFFFFF" stroke-width="1.7" stroke-linecap="round" stroke-linejoin="round"/>
  <text x="668" y="550" fill="#0B1B55" font-family="Inter, Arial, sans-serif" font-size="16" font-weight="800">College_Application.pdf</text>
  <text x="668" y="579" fill="#455273" font-family="Inter, Arial, sans-serif" font-size="14">Application Form</text>
  <text x="615" y="609" fill="#455273" font-family="Inter, Arial, sans-serif" font-size="16">PDF  •  358 KB</text>
  <text x="615" y="640" fill="#455273" font-family="Inter, Arial, sans-serif" font-size="16">Customer: S. Lakshmi</text>
  <rect x="614" y="654" width="85" height="29" rx="8" fill="#EAF2FF"/>
  <text x="625" y="674" fill="#2563EB" font-family="Inter, Arial, sans-serif" font-size="13" font-weight="800">Document</text>
  <text x="932" y="604" fill="#171717" font-family="Inter, Arial, sans-serif" font-size="20">4</text>
  <text x="1018" y="604" fill="#171717" font-family="Inter, Arial, sans-serif" font-size="20">1</text>
  <rect x="1091" y="568" width="153" height="45" rx="8" fill="#EAF8F2" stroke="#C8ECDE"/>
  <circle cx="1112" cy="590" r="9" fill="#14B866"/>
  <path d="M1107 590L1111 594L1118 585" stroke="#FFFFFF" stroke-width="2" stroke-linecap="round" stroke-linejoin="round"/>
  <text x="1131" y="597" fill="#0A944F" font-family="Inter, Arial, sans-serif" font-size="15" font-weight="800">Ready to Print</text>
  <text x="1091" y="638" fill="#455273" font-family="Inter, Arial, sans-serif" font-size="14">Click print to start</text>
  <text x="1304" y="604" fill="#171717" font-family="Inter, Arial, sans-serif" font-size="16">10:21 AM</text>
  <rect x="1397" y="575" width="95" height="45" rx="8" fill="#2563EB"/>
  <text x="1444" y="603" text-anchor="middle" fill="#FFFFFF" font-family="Inter, Arial, sans-serif" font-size="15" font-weight="800">Print</text>
  <path d="M1415 590H1430M1418 590V584H1427V590M1418 600H1427V608H1418V600Z" stroke="#FFFFFF" stroke-width="1.8" stroke-linecap="round" stroke-linejoin="round"/>
  <rect x="1501" y="575" width="44" height="45" rx="9" fill="#FFFFFF" stroke="#D9E3F4"/>
  <circle cx="1523" cy="589" r="2.3" fill="#0B1B55"/>
  <circle cx="1523" cy="597" r="2.3" fill="#0B1B55"/>
  <circle cx="1523" cy="605" r="2.3" fill="#0B1B55"/>

  <rect x="339.5" y="702.5" width="1230" height="188" rx="15.5" fill="#FFFFFF" stroke="#D9E3F4"/>
  <g>
    <rect x="382" y="716" width="66" height="80" fill="#EAF2FF"/>
    <circle cx="415" cy="745" r="19" fill="#25324B"/>
    <rect x="394" y="760" width="42" height="36" rx="11" fill="#D9A477"/>
    <rect x="459" y="716" width="66" height="80" fill="#EAF2FF"/>
    <circle cx="492" cy="745" r="19" fill="#25324B"/>
    <rect x="471" y="760" width="42" height="36" rx="11" fill="#D9A477"/>
    <rect x="382" y="805" width="66" height="80" fill="#EAF2FF"/>
    <circle cx="415" cy="834" r="19" fill="#25324B"/>
    <rect x="394" y="849" width="42" height="36" rx="11" fill="#D9A477"/>
    <rect x="459" y="805" width="66" height="80" fill="#EAF2FF"/>
    <circle cx="492" cy="834" r="19" fill="#25324B"/>
    <rect x="471" y="849" width="42" height="36" rx="11" fill="#D9A477"/>
  </g>
  <rect x="614" y="722" width="36" height="36" rx="8" fill="#3026C9"/>
  <path d="M625 731H639V745H625V731ZM628 742L631 738L634 741L636 739L639 742" stroke="#FFFFFF" stroke-width="1.7" stroke-linecap="round" stroke-linejoin="round"/>
  <text x="668" y="737" fill="#0B1B55" font-family="Inter, Arial, sans-serif" font-size="16" font-weight="800">Passport_Photo.jpg</text>
  <text x="668" y="766" fill="#455273" font-family="Inter, Arial, sans-serif" font-size="14">Passport Size Photo</text>
  <text x="615" y="796" fill="#455273" font-family="Inter, Arial, sans-serif" font-size="16">JPG  •  1.1 MB</text>
  <text x="615" y="827" fill="#455273" font-family="Inter, Arial, sans-serif" font-size="16">Customer: K. Naveen</text>
  <rect x="614" y="845" width="59" height="29" rx="8" fill="#EAF2FF"/>
  <text x="625" y="865" fill="#2563EB" font-family="Inter, Arial, sans-serif" font-size="13" font-weight="800">Photo</text>
  <text x="935" y="791" fill="#171717" font-family="Inter, Arial, sans-serif" font-size="20">1</text>
  <text x="1018" y="791" fill="#171717" font-family="Inter, Arial, sans-serif" font-size="20">6</text>
  <rect x="1091" y="749" width="153" height="70" rx="8" fill="#EAF8F2" stroke="#C8ECDE"/>
  <circle cx="1112" cy="770" r="9" fill="#14B866"/>
  <path d="M1107 770L1111 774L1118 765" stroke="#FFFFFF" stroke-width="2" stroke-linecap="round" stroke-linejoin="round"/>
  <text x="1131" y="777" fill="#0A944F" font-family="Inter, Arial, sans-serif" font-size="15" font-weight="800">Printed</text>
  <text x="1101" y="804" fill="#171717" font-family="Inter, Arial, sans-serif" font-size="14">Auto-delete in 12 min</text>
  <rect x="1091" y="834" width="104" height="8" rx="4" fill="#E4F1EC"/>
  <rect x="1091" y="834" width="65" height="8" rx="4" fill="#14B866"/>
  <text x="1208" y="844" fill="#171717" font-family="Inter, Arial, sans-serif" font-size="13">12:00</text>
  <text x="1304" y="791" fill="#171717" font-family="Inter, Arial, sans-serif" font-size="16">10:18 AM</text>
  <rect x="1387.5" y="770.5" width="101" height="44" rx="8.5" fill="#FFFFFF" stroke="#D9E3F4"/>
  <text x="1427" y="798" fill="#0B1B55" font-family="Inter, Arial, sans-serif" font-size="14" font-weight="800">Reprint</text>
  <path d="M1403 785C1409 779 1419 783 1419 791C1419 798 1412 802 1406 798M1403 785V779M1403 785H1409" stroke="#0B1B55" stroke-width="1.8" stroke-linecap="round" stroke-linejoin="round"/>
  <rect x="1501" y="770" width="44" height="45" rx="9" fill="#FFFFFF" stroke="#D9E3F4"/>
  <circle cx="1523" cy="784" r="2.3" fill="#0B1B55"/>
  <circle cx="1523" cy="792" r="2.3" fill="#0B1B55"/>
  <circle cx="1523" cy="800" r="2.3" fill="#0B1B55"/>

  <rect x="339.5" y="905.5" width="1230" height="91" rx="15.5" fill="#FFFFFF" stroke="#D9E3F4"/>
  <path d="M372 925L381 930V943C381 949 377 953 372 955C367 953 363 949 363 943V930L372 925Z" stroke="#0B1B55" stroke-width="2"/>
  <text x="394" y="939" fill="#171717" font-family="Inter, Arial, sans-serif" font-size="16" font-weight="800">Auto-delete enabled</text>
  <text x="394" y="971" fill="#455273" font-family="Inter, Arial, sans-serif" font-size="14">Printed files are securely deleted after 15 minutes</text>
  <path d="M934 922V979M1118 922V979" stroke="#D9E3F4"/>
  <text x="973" y="938" fill="#455273" font-family="Inter, Arial, sans-serif" font-size="13">Total Jobs Today</text>
  <text x="1013" y="972" fill="#171717" font-family="Inter, Arial, sans-serif" font-size="22" font-weight="800">28</text>
  <text x="1158" y="938" fill="#455273" font-family="Inter, Arial, sans-serif" font-size="13">Printed Today</text>
  <text x="1190" y="972" fill="#171717" font-family="Inter, Arial, sans-serif" font-size="22" font-weight="800">22</text>
  <rect x="1310" y="920" width="233" height="58" rx="9" fill="#2563EB"/>
  <path d="M1346 939V960M1336 949H1357" stroke="#FFFFFF" stroke-width="2" stroke-linecap="round"/>
  <text x="1368" y="953" fill="#FFFFFF" font-family="Inter, Arial, sans-serif" font-size="18" font-weight="800">Add Walk-in Print</text>
</svg>
